<svg width="219" height="80" viewBox="0 0 219 80" fill="none" xmlns="http://www.w3.org/2000/svg">
<g clip-path="url(#clip0_1551_547)">
<path d="M121.298 3.05176e-05L117.648 1.88338L102.636 19.0662L105.275 22.1789L102.409 23.7026L90.1101 12.8103L90.1059 12.8177L86.45 14.7969L85.7473 16.1268L85.8097 13.1436L65.815 19.5194L65.8155 19.53L62.1301 21.5037L62.6539 32.1766L66.1028 31.3061L66.3179 33.6756C63.4052 33.2625 60.2941 33.6773 57.3403 34.9228C56.0563 35.4814 54.8592 36.1677 53.756 36.9659C54.5055 33.6555 54.3278 30.3919 53.064 27.4814C51.5716 24.0422 48.9454 21.2001 45.7252 19.4068C43.4679 17.9058 40.7771 16.9707 37.9617 16.6525C31.0428 15.4454 22.7347 16.6847 14.5578 20.1619C11.5518 21.4419 8.74787 22.8943 6.21879 24.5021L3.02218 26.5257L3.02433 26.5298L0 29.5968L9.75462 46.0323L13.4242 44.46L29.1243 80L44.0397 75.1974L47.6107 72.8019L47.711 72.77L46.7799 69.1835L44.5784 60.7481C45.75 63.0301 47.5027 64.7065 47.5027 64.7065C49.0876 66.2528 51.0302 67.3781 53.1975 68.0096C57.3658 69.207 62.0704 68.4266 66.109 65.8561C67.0056 65.2898 68.1708 64.4356 69.0422 63.6745L69.5421 69.1763L83.5939 67.1016L87.3468 65.1381L87.3534 65.1372L87.338 56.2714L113.156 69.0365L116.824 67.0594L116.805 67.0495V54.9326L116.811 54.9624C119.83 54.5139 122.421 53.3988 124.969 51.8702C125.013 51.8441 125.058 51.8144 125.102 51.7876L123.993 58.5178L139.904 61.0595L142.96 59.4164L144.907 63.008L147.787 61.4285L148.36 66.1629L166.435 69.3624L170.047 67.3798L169.902 67.3376L170.058 67.3653L169.362 62.9569C170.608 62.8159 171.906 62.6485 173.022 62.2517C173.468 62.0995 174.091 61.8508 174.759 61.5576L174.043 67.9052L186.026 69.6274L186.141 74.4986L198.574 78.4536L202.275 76.4961L202.264 76.4879L202.292 76.4964L218.571 27.5198L201.619 23.4071L201.612 23.4331L198.956 24.846L198.52 22.6959L178.6 18.3194V18.3186L174.921 20.3004L175.044 30.37C172.973 30.3218 170.838 30.6797 168.764 31.4616C167.307 32.0178 165.955 32.7488 164.728 33.6377L161.723 14.7028H148.541L148.538 14.6892L148.513 14.7028H148.475L148.471 14.7249L144.831 16.6794L144.796 16.8801H134.166L134.146 17.0003L134.148 16.8622L130.529 18.8496L129.774 23.4305C126.537 20.402 122.315 18.7451 117.712 18.649L129.552 12.2976L121.296 0.000780857L121.287 0.0110053L121.298 3.05176e-05ZM120.661 5.46176L125.026 11.3807L112.545 17.5561L111.683 16.2489L120.661 5.46176ZM151.965 18.3683H158.713L161.513 36.5341C157.949 40.5854 156.219 46.0315 157.409 51.0138C158.33 54.8764 160.708 57.987 164.117 59.8038C164.46 59.9762 164.816 60.1469 165.182 60.2942L165.539 62.6493L155.589 61.1324L152.94 43.6163L149.194 53.2789L143.584 41.202H143.521L141.304 55.1879L131.954 53.564L133.269 45.7596C133.621 45.4285 133.969 45.0965 134.31 44.7459L137.341 41.6311L134.395 38.9987L137.525 20.4123H146.958L149.319 33.2787L151.965 18.3683ZM91.4232 18.6158L100.172 26.9328L87.9367 39.7993L99.4322 44.3377C100.716 46.7665 102.675 48.8304 105.133 50.3508C107.508 51.8145 110.231 52.6799 113.11 52.9641L113.112 61.1929L83.8666 46.5935L83.8926 54.3024L83.68 54.4627L83.8935 54.5683L83.9183 61.89L76.3532 62.9198L75.826 56.6144C78.162 52.6166 79.0161 47.9057 77.797 43.5856C77.1278 41.2111 75.8917 39.15 74.2119 37.4984L73.1267 24.6426L69.7295 25.522L69.5796 22.2713L81.7283 18.6606L81.9998 23.2203L81.9832 23.2518L82.0015 23.246L82.4732 31.1672L91.4232 18.6158ZM32.5561 20.1089C34.212 20.1122 35.7928 20.2471 37.2802 20.5094C39.385 20.7458 41.613 21.3653 43.5645 22.6582C46.242 24.1633 48.2901 26.3056 49.4711 29.0339C52.3514 35.6775 47.5399 45.2382 38.0166 51.1046L42.9959 70.1746L34.9365 72.7444L18.3989 35.8801C17.4993 36.3521 15.8379 37.1435 14.3122 37.89L8.32365 27.7927C10.7051 26.2747 13.3168 24.9291 16.0949 23.7576C21.9423 21.2753 27.5885 20.0992 32.5561 20.1089ZM117.118 22.429C121.798 22.3734 125.822 24.284 128.518 27.5856L116.34 40.5237C117.166 40.6791 118.479 40.463 119.448 40.2314C121.194 39.8064 122.476 39.0791 123.533 38.2032C123.522 38.2174 123.51 38.2312 123.5 38.2458C123.556 38.1947 123.611 38.15 123.669 38.103L123.663 38.0964C124.307 37.5457 124.868 36.9401 125.402 36.3149L130.269 40.685L131.743 42.0144C131.104 42.6742 130.433 43.2971 129.753 43.8662C126.946 46.1833 123.747 47.6938 119.521 48.7131C118.597 48.9244 117.691 49.0781 116.805 49.1558C110.097 49.814 104.468 46.7395 102.333 41.7524C102.067 41.1484 101.861 40.5369 101.706 39.8843C100.719 35.6841 101.562 31.9303 103.641 28.989C104.24 28.1308 104.95 27.3485 105.748 26.6442C107.706 24.9003 110.206 23.6325 113.048 22.9508C114.446 22.6143 115.808 22.4448 117.118 22.4292L117.118 22.429ZM182.133 22.9254L195.128 25.5323L199.498 46.2147L203.979 27.6721L213.865 29.8525L199.941 71.9348L194.149 70.2125L193.014 69.3347L192.425 44.4365L188.947 64.0639L181.405 62.8623L181.945 57.2114C186.87 53.0573 189.481 46.5043 188.05 40.5659C187.422 37.9363 186.067 35.6466 184.158 33.906L184.794 27.2413L181.943 26.4837L182.133 22.9254ZM174.618 33.6712C177.068 33.6321 179.327 34.3202 181.116 35.604C182.169 36.3488 183.042 37.2969 183.731 38.3987C184.253 39.2691 184.659 40.2281 184.905 41.2757C185.781 44.9011 184.737 48.7841 182.446 51.9124C181.465 53.2459 180.268 54.444 178.889 55.4252C177.858 56.1579 176.723 56.7804 175.503 57.2297C173.095 58.1454 170.699 58.3358 168.565 57.9123C167.078 57.6192 165.722 57.0403 164.541 56.2024C162.665 54.8471 161.282 52.8459 160.673 50.3329C159.963 47.3139 160.617 44.0903 162.244 41.2664C163.055 39.886 164.096 38.5888 165.327 37.4707C166.701 36.2417 168.293 35.2354 170.064 34.5553C171.61 33.9797 173.149 33.6946 174.618 33.6712ZM97.6508 34.7956C97.4886 36.4845 97.5722 38.2505 97.9266 40.0413L93.8587 38.4746L93.8591 38.4741L97.6508 34.7956ZM64.3677 36.5073C66.6744 36.5295 68.8136 37.1856 70.5628 38.3719C72.4836 39.6721 73.9483 41.6271 74.632 44.0769C74.718 44.3368 74.7747 44.61 74.8322 44.8771C75.0277 45.8106 75.1065 46.7675 75.0692 47.7107C74.9767 50.5499 73.9321 53.3949 72.1833 55.8019C70.5197 58.1295 68.1957 60.0505 65.4614 61.2253C58.4695 64.1819 51.4778 61.2252 49.6098 54.5994C47.8002 48.1931 52.0107 40.5669 58.7851 37.6539C60.678 36.8563 62.5736 36.49 64.3677 36.5073ZM69.0243 63.4746L69.0256 63.487C69.0066 63.4936 68.9872 63.5006 68.9676 63.5074C68.9863 63.4963 69.0056 63.4858 69.0243 63.4746L69.0243 63.4746Z" fill="white"/>
<path d="M43.1006 35.9941C42.3714 32.0886 37.2549 29.9359 32.1821 32.6974L33.4897 37.1672L35.5467 43.7728L36.4851 46.7812C40.2909 44.3387 44.1161 41.4039 43.1006 35.9941ZM38.0619 41.9997C37.5079 40.1952 36.2929 36.2985 36.2929 36.2985C36.2986 36.3163 36.0536 35.4647 35.7632 34.4899C36.8388 34.298 37.8721 34.3757 38.7222 34.7838C39.1975 35.0097 40.033 35.5367 40.2155 36.5358C40.6356 38.7816 39.8772 40.3846 38.0619 41.9997Z" fill="white"/>
<path d="M119.861 29.7974C117.025 27.2011 112.618 27.4026 110.031 30.2306C107.429 33.0537 107.633 37.4554 110.473 40.0413C110.704 40.264 110.954 40.4461 111.205 40.625L120.352 30.2856C120.191 30.1172 120.029 29.9496 119.861 29.7974ZM111.224 37.0701C110.329 35.4306 110.51 33.3492 111.848 31.8903C113.134 30.4913 115.105 30.0929 116.786 30.7398L111.224 37.0701Z" fill="white"/>
<path d="M179.053 39.0998C179.13 39.4066 179.17 39.7102 179.16 40.0332C179.076 41.9649 177.257 43.4562 175.088 43.355C172.921 43.2806 171.218 41.6387 171.303 39.7118C171.376 37.9056 172.989 36.4758 174.98 36.3844C174.602 36.2994 174.207 36.2548 173.795 36.2403C170.167 36.084 167.201 38.6488 167.076 41.8419C166.937 45.2568 169.679 48.041 173.25 48.1956C176.883 48.3406 179.847 45.7668 179.991 42.3681C180.033 41.1901 179.684 40.0608 179.053 39.0998Z" fill="white"/>
<path d="M68.9883 42.9996C68.9883 44.9394 67.2209 46.4938 65.056 46.4938C62.8854 46.4938 61.1245 44.9386 61.1245 42.9996C61.1245 41.1918 62.6737 39.7013 64.6594 39.528C64.279 39.4592 63.8831 39.4196 63.4743 39.4196C59.847 39.4196 56.9854 42.105 56.9854 45.3029C56.9854 48.7154 59.8478 51.3919 63.4159 51.3919C67.0465 51.3919 69.9057 48.7138 69.9057 45.3029C69.9057 44.1217 69.5147 43.0085 68.8423 42.092C68.9332 42.3681 68.9883 42.6741 68.9883 42.9996Z" fill="white"/>
</g>
<defs>
<clipPath id="clip0_1551_547">
<rect width="218.571" height="80" fill="white"/>
</clipPath>
</defs>
</svg>
