<svg width="89" height="32" viewBox="0 0 89 32" fill="none" xmlns="http://www.w3.org/2000/svg">
<rect width="89" height="32" rx="8" fill="#14A8FF"/>
<path fill-rule="evenodd" clip-rule="evenodd" d="M21.1929 18.8286C21.1929 21.6843 18.8692 23.9993 16.0027 23.9993C13.1362 23.9993 10.8125 21.6843 10.8125 18.8286C10.8125 16.0512 15.7219 8.42337 15.9912 8.00712C15.9973 7.99763 16.0081 7.99763 16.0142 8.00712C16.2834 8.42337 21.1929 16.0512 21.1929 18.8286ZM15.1375 22.3416C12.5037 21.7653 12.9544 18.8478 12.9544 18.8478C12.9544 18.8478 13.6736 20.609 15.4189 21.1795C17.1642 21.75 19.2733 20.9133 19.2733 20.9133C19.2733 20.9133 17.7712 22.9178 15.1375 22.3416Z" fill="white"/>
<path d="M36.368 22L32.592 10.8H33.808L37.344 21.344H36.736L40.384 10.8H41.472L45.072 21.344H44.496L48.064 10.8H49.2L45.424 22H44.176L40.736 12H41.056L37.6 22H36.368ZM55.7543 22V20.144L55.7063 19.84V16.736C55.7063 16.0213 55.5036 15.472 55.0983 15.088C54.7036 14.704 54.1116 14.512 53.3223 14.512C52.7783 14.512 52.2609 14.6027 51.7703 14.784C51.2796 14.9653 50.8636 15.2053 50.5223 15.504L50.0103 14.656C50.4369 14.2933 50.9489 14.016 51.5463 13.824C52.1436 13.6213 52.7729 13.52 53.4343 13.52C54.5223 13.52 55.3596 13.792 55.9463 14.336C56.5436 14.8693 56.8423 15.6853 56.8423 16.784V22H55.7543ZM52.8583 22.08C52.2289 22.08 51.6796 21.9787 51.2103 21.776C50.7516 21.5627 50.3996 21.2747 50.1543 20.912C49.9089 20.5387 49.7863 20.112 49.7863 19.632C49.7863 19.1947 49.8876 18.8 50.0903 18.448C50.3036 18.0853 50.6449 17.7973 51.1143 17.584C51.5943 17.36 52.2343 17.248 53.0343 17.248H55.9303V18.096H53.0663C52.2556 18.096 51.6903 18.24 51.3703 18.528C51.0609 18.816 50.9062 19.1733 50.9062 19.6C50.9062 20.08 51.0929 20.464 51.4663 20.752C51.8396 21.04 52.3623 21.184 53.0343 21.184C53.6743 21.184 54.2236 21.04 54.6823 20.752C55.1516 20.4533 55.4929 20.0267 55.7063 19.472L55.9623 20.256C55.7489 20.8107 55.3756 21.2533 54.8423 21.584C54.3196 21.9147 53.6583 22.08 52.8583 22.08ZM62.5838 22.08C61.7944 22.08 61.1864 21.8667 60.7598 21.44C60.3331 21.0133 60.1198 20.4107 60.1198 19.632V11.744H61.2558V19.568C61.2558 20.0587 61.3784 20.4373 61.6238 20.704C61.8798 20.9707 62.2424 21.104 62.7118 21.104C63.2131 21.104 63.6291 20.96 63.9598 20.672L64.3598 21.488C64.1358 21.6907 63.8638 21.84 63.5438 21.936C63.2344 22.032 62.9144 22.08 62.5838 22.08ZM58.6158 14.544V13.6H63.8158V14.544H58.6158ZM69.6989 22.08C68.8242 22.08 68.0562 21.8987 67.3949 21.536C66.7335 21.1627 66.2162 20.656 65.8429 20.016C65.4695 19.3653 65.2829 18.624 65.2829 17.792C65.2829 16.96 65.4589 16.224 65.8109 15.584C66.1735 14.944 66.6642 14.4427 67.2829 14.08C67.9122 13.7067 68.6162 13.52 69.3949 13.52C70.1842 13.52 70.8829 13.7013 71.4909 14.064C72.1095 14.416 72.5949 14.9173 72.9469 15.568C73.2989 16.208 73.4749 16.9493 73.4749 17.792C73.4749 17.8453 73.4695 17.904 73.4589 17.968C73.4589 18.0213 73.4589 18.08 73.4589 18.144H66.1469V17.296H72.8509L72.4029 17.632C72.4029 17.024 72.2695 16.4853 72.0029 16.016C71.7469 15.536 71.3949 15.1627 70.9469 14.896C70.4989 14.6293 69.9815 14.496 69.3949 14.496C68.8189 14.496 68.3015 14.6293 67.8429 14.896C67.3842 15.1627 67.0269 15.536 66.7709 16.016C66.5149 16.496 66.3869 17.0453 66.3869 17.664V17.84C66.3869 18.48 66.5255 19.0453 66.8029 19.536C67.0909 20.016 67.4855 20.3947 67.9869 20.672C68.4989 20.9387 69.0802 21.072 69.7309 21.072C70.2429 21.072 70.7175 20.9813 71.1549 20.8C71.6029 20.6187 71.9869 20.3413 72.3069 19.968L72.9469 20.704C72.5735 21.152 72.1042 21.4933 71.5389 21.728C70.9842 21.9627 70.3709 22.08 69.6989 22.08ZM75.7871 22V13.6H76.8751V15.888L76.7631 15.488C76.9978 14.848 77.3925 14.3627 77.9471 14.032C78.5018 13.6907 79.1898 13.52 80.0111 13.52V14.624C79.9685 14.624 79.9258 14.624 79.8831 14.624C79.8405 14.6133 79.7978 14.608 79.7551 14.608C78.8698 14.608 78.1765 14.88 77.6751 15.424C77.1738 15.9573 76.9231 16.72 76.9231 17.712V22H75.7871Z" fill="white"/>
</svg>
