<svg width="101" height="32" viewBox="0 0 101 32" fill="none" xmlns="http://www.w3.org/2000/svg">
<rect width="101" height="32" rx="8" fill="#0076FF"/>
<path fill-rule="evenodd" clip-rule="evenodd" d="M16.7719 15.965C16.8804 15.8989 16.9724 15.7603 17.0466 15.6063C18.023 16.0054 18.7091 16.9484 18.7091 18.0481C18.7091 19.5091 17.4982 20.6934 16.0044 20.6934C15.3912 20.6934 14.8257 20.4938 14.3721 20.1575C14.2232 20.087 14.1008 20.0193 14.0006 19.9639C13.8452 19.878 13.7433 19.8217 13.6795 19.8305C13.493 19.8562 13.5471 20.0278 13.5963 20.1837C13.6297 20.2896 13.6609 20.3883 13.6127 20.429C13.5622 20.4716 13.3989 20.3158 13.208 20.1338C12.9481 19.886 12.6372 19.5896 12.4906 19.6787C12.3747 19.7491 12.4872 19.94 12.625 20.1738L12.6352 20.1911C12.6934 20.2899 12.7608 20.3906 12.8224 20.4824C12.9475 20.669 13.0482 20.8193 12.9978 20.8448C12.9369 20.8755 12.5123 20.589 12.1545 20.1911C12.0164 20.0376 11.8827 19.8712 11.7584 19.7165V19.7165C11.4863 19.3779 11.2596 19.0959 11.1323 19.1293C10.9793 19.1695 11.0951 19.4852 11.2652 19.7891C11.3448 19.9312 11.4384 20.0758 11.5194 20.2011V20.2012C11.6454 20.396 11.7411 20.5438 11.7064 20.562C11.6596 20.5865 11.2477 20.1848 10.9679 19.6787C10.8017 19.378 10.6622 19.0457 10.5493 18.7768C10.4267 18.4851 10.3355 18.2678 10.2754 18.2459C10.0666 18.1699 10.0666 18.5956 10.1504 19.2099C10.1613 19.2901 10.1776 19.3742 10.1976 19.4598C11.0096 22.087 13.504 24 16.4552 24C20.0651 24 22.9915 21.1379 22.9915 17.6073C22.9915 14.2469 20.3406 11.4921 16.9725 11.2342C16.9767 11.0759 17.0594 10.762 17.0594 10.762C17.0594 10.762 17.654 9.32335 17.6854 9.01593C17.6875 8.99553 17.6899 8.97336 17.6926 8.94975C17.7296 8.61759 17.7985 8 17.2672 8C16.9835 8 16.8515 8.21108 16.7006 8.4525V8.4525C16.6427 8.54518 16.5819 8.64233 16.5087 8.73372C15.9816 9.39199 15.0952 10.214 14.5927 10.652C13.5303 11.5776 12.4881 12.3384 11.8802 12.7821L11.8802 12.7821C11.6037 12.9839 11.4171 13.1201 11.3594 13.1764C10.9242 13.6006 9.36381 16.4152 9.36381 16.4152C9.36381 16.4152 8.8592 17.3182 9.03856 17.5013C9.21792 17.6845 9.65044 17.6425 9.65044 17.6425C9.65044 17.6425 15.4611 16.3095 15.9813 16.2043C16.1214 16.176 16.2202 16.1597 16.2962 16.1472C16.5022 16.1131 16.5392 16.107 16.7719 15.965ZM12.6636 14.252C12.3517 14.5485 11.8344 15.2561 11.8344 15.2561C11.8344 15.2561 12.7958 15.3153 13.3252 14.8121C13.8547 14.3087 13.7334 13.451 13.7334 13.451C13.7334 13.451 12.9755 13.9555 12.6636 14.252Z" fill="white"/>
<path d="M33.824 22V10.8H38.384C39.5787 10.8 40.624 11.04 41.52 11.52C42.4267 11.9893 43.1307 12.6453 43.632 13.488C44.1333 14.3307 44.384 15.3013 44.384 16.4C44.384 17.4987 44.1333 18.4693 43.632 19.312C43.1307 20.1547 42.4267 20.816 41.52 21.296C40.624 21.7653 39.5787 22 38.384 22H33.824ZM35.008 20.976H38.32C39.312 20.976 40.1707 20.784 40.896 20.4C41.632 20.0053 42.2027 19.4667 42.608 18.784C43.0133 18.0907 43.216 17.296 43.216 16.4C43.216 15.4933 43.0133 14.6987 42.608 14.016C42.2027 13.3333 41.632 12.8 40.896 12.416C40.1707 12.0213 39.312 11.824 38.32 11.824H35.008V20.976ZM46.8028 22V13.6H47.8908V15.888L47.7788 15.488C48.0134 14.848 48.4081 14.3627 48.9628 14.032C49.5174 13.6907 50.2054 13.52 51.0268 13.52V14.624C50.9841 14.624 50.9414 14.624 50.8988 14.624C50.8561 14.6133 50.8134 14.608 50.7708 14.608C49.8854 14.608 49.1921 14.88 48.6908 15.424C48.1894 15.9573 47.9388 16.72 47.9388 17.712V22H46.8028ZM57.7386 22V20.144L57.6906 19.84V16.736C57.6906 16.0213 57.488 15.472 57.0826 15.088C56.688 14.704 56.096 14.512 55.3066 14.512C54.7626 14.512 54.2453 14.6027 53.7546 14.784C53.264 14.9653 52.848 15.2053 52.5066 15.504L51.9946 14.656C52.4213 14.2933 52.9333 14.016 53.5306 13.824C54.128 13.6213 54.7573 13.52 55.4186 13.52C56.5066 13.52 57.344 13.792 57.9306 14.336C58.528 14.8693 58.8266 15.6853 58.8266 16.784V22H57.7386ZM54.8426 22.08C54.2133 22.08 53.664 21.9787 53.1946 21.776C52.736 21.5627 52.384 21.2747 52.1386 20.912C51.8933 20.5387 51.7706 20.112 51.7706 19.632C51.7706 19.1947 51.872 18.8 52.0746 18.448C52.288 18.0853 52.6293 17.7973 53.0986 17.584C53.5786 17.36 54.2186 17.248 55.0186 17.248H57.9146V18.096H55.0506C54.24 18.096 53.6746 18.24 53.3546 18.528C53.0453 18.816 52.8906 19.1733 52.8906 19.6C52.8906 20.08 53.0773 20.464 53.4506 20.752C53.824 21.04 54.3466 21.184 55.0186 21.184C55.6586 21.184 56.208 21.04 56.6666 20.752C57.136 20.4533 57.4773 20.0267 57.6906 19.472L57.9466 20.256C57.7333 20.8107 57.36 21.2533 56.8266 21.584C56.304 21.9147 55.6426 22.08 54.8426 22.08ZM65.4961 25.184C64.7281 25.184 63.9921 25.072 63.2881 24.848C62.5841 24.624 62.0135 24.304 61.5761 23.888L62.1521 23.024C62.5468 23.376 63.0321 23.6533 63.6081 23.856C64.1948 24.0693 64.8135 24.176 65.4641 24.176C66.5308 24.176 67.3148 23.9253 67.8161 23.424C68.3175 22.9333 68.5681 22.1653 68.5681 21.12V19.024L68.7281 17.584L68.6161 16.144V13.6H69.7041V20.976C69.7041 22.4267 69.3468 23.488 68.6321 24.16C67.9281 24.8427 66.8828 25.184 65.4961 25.184ZM65.2881 21.68C64.4881 21.68 63.7681 21.5093 63.1281 21.168C62.4881 20.816 61.9815 20.3307 61.6081 19.712C61.2455 19.0933 61.0641 18.384 61.0641 17.584C61.0641 16.784 61.2455 16.08 61.6081 15.472C61.9815 14.8533 62.4881 14.3733 63.1281 14.032C63.7681 13.6907 64.4881 13.52 65.2881 13.52C66.0348 13.52 66.7068 13.6747 67.3041 13.984C67.9015 14.2933 68.3761 14.752 68.7281 15.36C69.0801 15.968 69.2561 16.7093 69.2561 17.584C69.2561 18.4587 69.0801 19.2 68.7281 19.808C68.3761 20.416 67.9015 20.88 67.3041 21.2C66.7068 21.52 66.0348 21.68 65.2881 21.68ZM65.4001 20.672C66.0188 20.672 66.5681 20.544 67.0481 20.288C67.5281 20.0213 67.9068 19.6587 68.1841 19.2C68.4615 18.7307 68.6001 18.192 68.6001 17.584C68.6001 16.976 68.4615 16.4427 68.1841 15.984C67.9068 15.5253 67.5281 15.168 67.0481 14.912C66.5681 14.6453 66.0188 14.512 65.4001 14.512C64.7921 14.512 64.2428 14.6453 63.7521 14.912C63.2721 15.168 62.8935 15.5253 62.6161 15.984C62.3495 16.4427 62.2161 16.976 62.2161 17.584C62.2161 18.192 62.3495 18.7307 62.6161 19.2C62.8935 19.6587 63.2721 20.0213 63.7521 20.288C64.2428 20.544 64.7921 20.672 65.4001 20.672ZM76.2893 22.08C75.4786 22.08 74.7479 21.8987 74.0973 21.536C73.4573 21.1627 72.9506 20.656 72.5773 20.016C72.2039 19.3653 72.0173 18.624 72.0173 17.792C72.0173 16.9493 72.2039 16.208 72.5773 15.568C72.9506 14.928 73.4573 14.4267 74.0973 14.064C74.7373 13.7013 75.4679 13.52 76.2893 13.52C77.1213 13.52 77.8573 13.7013 78.4973 14.064C79.1479 14.4267 79.6546 14.928 80.0173 15.568C80.3906 16.208 80.5773 16.9493 80.5773 17.792C80.5773 18.624 80.3906 19.3653 80.0173 20.016C79.6546 20.656 79.1479 21.1627 78.4973 21.536C77.8466 21.8987 77.1106 22.08 76.2893 22.08ZM76.2893 21.072C76.8973 21.072 77.4359 20.9387 77.9053 20.672C78.3746 20.3947 78.7426 20.0107 79.0093 19.52C79.2866 19.0187 79.4253 18.4427 79.4253 17.792C79.4253 17.1307 79.2866 16.5547 79.0093 16.064C78.7426 15.5733 78.3746 15.1947 77.9053 14.928C77.4359 14.6507 76.9026 14.512 76.3053 14.512C75.7079 14.512 75.1746 14.6507 74.7053 14.928C74.2359 15.1947 73.8626 15.5733 73.5853 16.064C73.3079 16.5547 73.1693 17.1307 73.1693 17.792C73.1693 18.4427 73.3079 19.0187 73.5853 19.52C73.8626 20.0107 74.2359 20.3947 74.7053 20.672C75.1746 20.9387 75.7026 21.072 76.2893 21.072ZM87.1845 13.52C87.8672 13.52 88.4645 13.6533 88.9765 13.92C89.4992 14.176 89.9045 14.5707 90.1925 15.104C90.4912 15.6373 90.6405 16.3093 90.6405 17.12V22H89.5045V17.232C89.5045 16.3467 89.2805 15.68 88.8325 15.232C88.3952 14.7733 87.7765 14.544 86.9765 14.544C86.3792 14.544 85.8565 14.6667 85.4085 14.912C84.9712 15.1467 84.6298 15.4933 84.3845 15.952C84.1498 16.4 84.0325 16.944 84.0325 17.584V22H82.8965V13.6H83.9845V15.904L83.8085 15.472C84.0752 14.864 84.5018 14.3893 85.0885 14.048C85.6752 13.696 86.3738 13.52 87.1845 13.52Z" fill="white"/>
</svg>
