<svg width="84" height="32" viewBox="0 0 84 32" fill="none" xmlns="http://www.w3.org/2000/svg">
<rect width="84" height="32" rx="8" fill="#1CD80E"/>
<g clip-path="url(#clip0_53_405)">
<path fill-rule="evenodd" clip-rule="evenodd" d="M11.0441 21.7703C10.9892 21.7186 10.9349 21.666 10.8812 21.6123C8.04732 18.7784 8.04733 14.1838 10.8812 11.3499C13.7151 8.51597 22.745 8.32639 22.745 8.32639C22.745 8.32639 23.9775 18.7784 21.1437 21.6123C18.6268 24.1292 14.7211 24.4107 11.8935 22.457L14.1719 19.661L17.8141 18.8747L14.841 18.5775L16.7304 16.6537L18.8812 16.1825L17.1805 15.6788L18.8812 12.6108L16.4621 15.3242L15.5279 14.006L15.8568 16.1825L14.1719 18.0819L13.3908 15.6788V18.8747L11.0441 21.7703Z" fill="white"/>
</g>
<path d="M38.736 22.096C37.8827 22.096 37.0933 21.9573 36.368 21.68C35.6533 21.392 35.0293 20.992 34.496 20.48C33.9733 19.968 33.5627 19.3653 33.264 18.672C32.976 17.9787 32.832 17.2213 32.832 16.4C32.832 15.5787 32.976 14.8213 33.264 14.128C33.5627 13.4347 33.9787 12.832 34.512 12.32C35.0453 11.808 35.6693 11.4133 36.384 11.136C37.1093 10.848 37.8987 10.704 38.752 10.704C39.6053 10.704 40.384 10.8373 41.088 11.104C41.8027 11.3707 42.4107 11.776 42.912 12.32L42.176 13.072C41.7067 12.6027 41.1893 12.2667 40.624 12.064C40.0587 11.8613 39.4507 11.76 38.8 11.76C38.1067 11.76 37.4667 11.8773 36.88 12.112C36.304 12.336 35.7973 12.6613 35.36 13.088C34.9333 13.504 34.5973 13.9947 34.352 14.56C34.1173 15.1147 34 15.728 34 16.4C34 17.0613 34.1173 17.6747 34.352 18.24C34.5973 18.8053 34.9333 19.3013 35.36 19.728C35.7973 20.144 36.304 20.4693 36.88 20.704C37.4667 20.928 38.1013 21.04 38.784 21.04C39.424 21.04 40.0267 20.944 40.592 20.752C41.168 20.56 41.696 20.2347 42.176 19.776L42.848 20.672C42.3147 21.1413 41.6907 21.4987 40.976 21.744C40.2613 21.9787 39.5147 22.096 38.736 22.096ZM41.712 20.528V16.4H42.848V20.672L41.712 20.528ZM45.959 22V13.6H47.047V15.888L46.935 15.488C47.1697 14.848 47.5643 14.3627 48.119 14.032C48.6737 13.6907 49.3617 13.52 50.183 13.52V14.624C50.1403 14.624 50.0977 14.624 50.055 14.624C50.0123 14.6133 49.9697 14.608 49.927 14.608C49.0417 14.608 48.3483 14.88 47.847 15.424C47.3457 15.9573 47.095 16.72 47.095 17.712V22H45.959ZM56.8949 22V20.144L56.8469 19.84V16.736C56.8469 16.0213 56.6442 15.472 56.2389 15.088C55.8442 14.704 55.2522 14.512 54.4629 14.512C53.9189 14.512 53.4015 14.6027 52.9109 14.784C52.4202 14.9653 52.0042 15.2053 51.6629 15.504L51.1509 14.656C51.5775 14.2933 52.0895 14.016 52.6869 13.824C53.2842 13.6213 53.9135 13.52 54.5749 13.52C55.6629 13.52 56.5002 13.792 57.0869 14.336C57.6842 14.8693 57.9829 15.6853 57.9829 16.784V22H56.8949ZM53.9989 22.08C53.3695 22.08 52.8202 21.9787 52.3509 21.776C51.8922 21.5627 51.5402 21.2747 51.2949 20.912C51.0495 20.5387 50.9269 20.112 50.9269 19.632C50.9269 19.1947 51.0282 18.8 51.2309 18.448C51.4442 18.0853 51.7855 17.7973 52.2549 17.584C52.7349 17.36 53.3749 17.248 54.1749 17.248H57.0709V18.096H54.2069C53.3962 18.096 52.8309 18.24 52.5109 18.528C52.2015 18.816 52.0469 19.1733 52.0469 19.6C52.0469 20.08 52.2335 20.464 52.6069 20.752C52.9802 21.04 53.5029 21.184 54.1749 21.184C54.8149 21.184 55.3642 21.04 55.8229 20.752C56.2922 20.4533 56.6335 20.0267 56.8469 19.472L57.1029 20.256C56.8895 20.8107 56.5162 21.2533 55.9829 21.584C55.4602 21.9147 54.7989 22.08 53.9989 22.08ZM63.3244 22.08C62.631 22.08 61.975 21.984 61.3564 21.792C60.7377 21.5893 60.2524 21.3387 59.9004 21.04L60.4124 20.144C60.7537 20.4 61.191 20.624 61.7244 20.816C62.2577 20.9973 62.8177 21.088 63.4044 21.088C64.2044 21.088 64.7804 20.9653 65.1324 20.72C65.4844 20.464 65.6604 20.128 65.6604 19.712C65.6604 19.4027 65.559 19.1627 65.3564 18.992C65.1644 18.8107 64.9084 18.6773 64.5884 18.592C64.2684 18.496 63.911 18.416 63.5164 18.352C63.1217 18.288 62.727 18.2133 62.3324 18.128C61.9484 18.0427 61.5964 17.92 61.2764 17.76C60.9564 17.5893 60.695 17.36 60.4924 17.072C60.3004 16.784 60.2044 16.4 60.2044 15.92C60.2044 15.4613 60.3324 15.0507 60.5884 14.688C60.8444 14.3253 61.2177 14.0427 61.7084 13.84C62.2097 13.6267 62.8177 13.52 63.5324 13.52C64.0764 13.52 64.6204 13.5947 65.1644 13.744C65.7084 13.8827 66.1564 14.0693 66.5084 14.304L66.0124 15.216C65.639 14.96 65.239 14.7787 64.8124 14.672C64.3857 14.5547 63.959 14.496 63.5324 14.496C62.775 14.496 62.215 14.6293 61.8524 14.896C61.5004 15.152 61.3244 15.4827 61.3244 15.888C61.3244 16.208 61.4204 16.4587 61.6124 16.64C61.815 16.8213 62.0764 16.9653 62.3964 17.072C62.727 17.168 63.0844 17.248 63.4684 17.312C63.863 17.376 64.2524 17.456 64.6364 17.552C65.031 17.6373 65.3884 17.76 65.7084 17.92C66.039 18.0693 66.3004 18.288 66.4924 18.576C66.695 18.8533 66.7964 19.2213 66.7964 19.68C66.7964 20.1707 66.6577 20.5973 66.3804 20.96C66.1137 21.312 65.719 21.5893 65.1964 21.792C64.6844 21.984 64.0604 22.08 63.3244 22.08ZM71.1369 22.08C70.4435 22.08 69.7875 21.984 69.1689 21.792C68.5502 21.5893 68.0649 21.3387 67.7129 21.04L68.2249 20.144C68.5662 20.4 69.0035 20.624 69.5369 20.816C70.0702 20.9973 70.6302 21.088 71.2169 21.088C72.0169 21.088 72.5929 20.9653 72.9449 20.72C73.2969 20.464 73.4729 20.128 73.4729 19.712C73.4729 19.4027 73.3715 19.1627 73.1689 18.992C72.9769 18.8107 72.7209 18.6773 72.4009 18.592C72.0809 18.496 71.7235 18.416 71.3289 18.352C70.9342 18.288 70.5395 18.2133 70.1449 18.128C69.7609 18.0427 69.4089 17.92 69.0889 17.76C68.7689 17.5893 68.5075 17.36 68.3049 17.072C68.1129 16.784 68.0169 16.4 68.0169 15.92C68.0169 15.4613 68.1449 15.0507 68.4009 14.688C68.6569 14.3253 69.0302 14.0427 69.5209 13.84C70.0222 13.6267 70.6302 13.52 71.3449 13.52C71.8889 13.52 72.4329 13.5947 72.9769 13.744C73.5209 13.8827 73.9689 14.0693 74.3209 14.304L73.8249 15.216C73.4515 14.96 73.0515 14.7787 72.6249 14.672C72.1982 14.5547 71.7715 14.496 71.3449 14.496C70.5875 14.496 70.0275 14.6293 69.6649 14.896C69.3129 15.152 69.1369 15.4827 69.1369 15.888C69.1369 16.208 69.2329 16.4587 69.4249 16.64C69.6275 16.8213 69.8889 16.9653 70.2089 17.072C70.5395 17.168 70.8969 17.248 71.2809 17.312C71.6755 17.376 72.0649 17.456 72.4489 17.552C72.8435 17.6373 73.2009 17.76 73.5209 17.92C73.8515 18.0693 74.1129 18.288 74.3049 18.576C74.5075 18.8533 74.6089 19.2213 74.6089 19.68C74.6089 20.1707 74.4702 20.5973 74.1929 20.96C73.9262 21.312 73.5315 21.5893 73.0089 21.792C72.4969 21.984 71.8729 22.08 71.1369 22.08Z" fill="white"/>
<defs>
<clipPath id="clip0_53_405">
<rect width="16" height="16" fill="white" transform="translate(8 8)"/>
</clipPath>
</defs>
</svg>
