<svg width="79" height="32" viewBox="0 0 79 32" fill="none" xmlns="http://www.w3.org/2000/svg">
<rect width="79" height="32" rx="8" fill="#5A566A"/>
<g clip-path="url(#clip0_53_343)">
<path fill-rule="evenodd" clip-rule="evenodd" d="M15.1681 22.1516C15.4721 22.1981 15.7834 22.2222 16.1004 22.2222C19.4754 22.2222 22.2115 19.4862 22.2115 16.1111C22.2115 12.736 19.4754 10 16.1004 10C15.8739 10 15.6503 10.0123 15.4303 10.0363C17.1045 11.3047 18.2115 13.5019 18.2115 16C18.2115 18.6263 16.988 20.92 15.1681 22.1516ZM15.9893 24C20.4075 24 23.9893 20.4183 23.9893 16C23.9893 11.5817 20.4075 8 15.9893 8C11.571 8 7.98926 11.5817 7.98926 16C7.98926 20.4183 11.571 24 15.9893 24Z" fill="white"/>
</g>
<path d="M33.824 22V10.8H38.384C39.5787 10.8 40.624 11.04 41.52 11.52C42.4267 11.9893 43.1307 12.6453 43.632 13.488C44.1333 14.3307 44.384 15.3013 44.384 16.4C44.384 17.4987 44.1333 18.4693 43.632 19.312C43.1307 20.1547 42.4267 20.816 41.52 21.296C40.624 21.7653 39.5787 22 38.384 22H33.824ZM35.008 20.976H38.32C39.312 20.976 40.1707 20.784 40.896 20.4C41.632 20.0053 42.2027 19.4667 42.608 18.784C43.0133 18.0907 43.216 17.296 43.216 16.4C43.216 15.4933 43.0133 14.6987 42.608 14.016C42.2027 13.3333 41.632 12.8 40.896 12.416C40.1707 12.0213 39.312 11.824 38.32 11.824H35.008V20.976ZM52.0668 22V20.144L52.0188 19.84V16.736C52.0188 16.0213 51.8161 15.472 51.4108 15.088C51.0161 14.704 50.4241 14.512 49.6348 14.512C49.0908 14.512 48.5734 14.6027 48.0828 14.784C47.5921 14.9653 47.1761 15.2053 46.8348 15.504L46.3228 14.656C46.7494 14.2933 47.2614 14.016 47.8588 13.824C48.4561 13.6213 49.0854 13.52 49.7468 13.52C50.8348 13.52 51.6721 13.792 52.2588 14.336C52.8561 14.8693 53.1548 15.6853 53.1548 16.784V22H52.0668ZM49.1708 22.08C48.5414 22.08 47.9921 21.9787 47.5228 21.776C47.0641 21.5627 46.7121 21.2747 46.4668 20.912C46.2214 20.5387 46.0988 20.112 46.0988 19.632C46.0988 19.1947 46.2001 18.8 46.4028 18.448C46.6161 18.0853 46.9574 17.7973 47.4268 17.584C47.9068 17.36 48.5468 17.248 49.3468 17.248H52.2428V18.096H49.3788C48.5681 18.096 48.0028 18.24 47.6828 18.528C47.3734 18.816 47.2188 19.1733 47.2188 19.6C47.2188 20.08 47.4054 20.464 47.7788 20.752C48.1521 21.04 48.6748 21.184 49.3468 21.184C49.9868 21.184 50.5361 21.04 50.9948 20.752C51.4641 20.4533 51.8054 20.0267 52.0188 19.472L52.2748 20.256C52.0614 20.8107 51.6881 21.2533 51.1548 21.584C50.6321 21.9147 49.9708 22.08 49.1708 22.08ZM56.2403 22V13.6H57.3283V15.888L57.2163 15.488C57.4509 14.848 57.8456 14.3627 58.4003 14.032C58.9549 13.6907 59.6429 13.52 60.4643 13.52V14.624C60.4216 14.624 60.3789 14.624 60.3363 14.624C60.2936 14.6133 60.2509 14.608 60.2083 14.608C59.3229 14.608 58.6296 14.88 58.1283 15.424C57.6269 15.9573 57.3763 16.72 57.3763 17.712V22H56.2403ZM63.4331 19.824L63.4651 18.368L68.6971 13.6H70.0891L66.3931 17.136L65.7531 17.68L63.4331 19.824ZM62.5371 22V10.128H63.6731V22H62.5371ZM69.0491 22L65.5451 17.632L66.2811 16.752L70.4411 22H69.0491Z" fill="white"/>
<defs>
<clipPath id="clip0_53_343">
<rect width="16" height="16" fill="white" transform="translate(8 8)"/>
</clipPath>
</defs>
</svg>
