<svg width="95" height="32" viewBox="0 0 95 32" fill="none" xmlns="http://www.w3.org/2000/svg">
<rect width="95" height="32" rx="8" fill="#F149FF"/>
<g clip-path="url(#clip0_53_406)">
<path fill-rule="evenodd" clip-rule="evenodd" d="M21.3694 20.2953C22.9851 19.0034 24 17.1368 24 15.0609C24 11.1613 20.4183 8 16 8C11.5817 8 8 11.1613 8 15.0609C8 17.0618 8.94293 18.8683 10.458 20.1532C10.3662 20.4702 10.3158 20.815 10.3158 21.1756C10.3158 22.7355 11.2583 24 12.4211 24C13.1766 24 13.8391 23.4661 14.2105 22.6642C14.5819 23.4661 15.2445 24 16 24C16.6887 24 17.3001 23.5564 17.6842 22.8705C18.0683 23.5564 18.6798 24 19.3684 24C20.5311 24 21.4737 22.7355 21.4737 21.1756C21.4737 20.8682 21.4371 20.5723 21.3694 20.2953ZM20.6316 15.201C20.6316 17.1808 18.5108 18.7858 15.8948 18.7858C13.2787 18.7858 11.1579 17.1808 11.1579 15.201C11.1579 13.2212 13.2787 11.6162 15.8948 11.6162C18.5108 11.6162 20.6316 13.2212 20.6316 15.201Z" fill="white"/>
</g>
<path d="M33.824 22V10.8H38.016C38.9653 10.8 39.7813 10.9547 40.464 11.264C41.1467 11.5627 41.6693 12 42.032 12.576C42.4053 13.1413 42.592 13.8293 42.592 14.64C42.592 15.4293 42.4053 16.112 42.032 16.688C41.6693 17.2533 41.1467 17.6907 40.464 18C39.7813 18.3093 38.9653 18.464 38.016 18.464H34.48L35.008 17.904V22H33.824ZM35.008 18L34.48 17.424H37.984C39.104 17.424 39.952 17.184 40.528 16.704C41.1147 16.2133 41.408 15.5253 41.408 14.64C41.408 13.744 41.1147 13.0507 40.528 12.56C39.952 12.0693 39.104 11.824 37.984 11.824H34.48L35.008 11.264V18ZM48.2893 22.08C47.4786 22.08 46.7479 21.8987 46.0973 21.536C45.4573 21.1627 44.9506 20.656 44.5773 20.016C44.2039 19.3653 44.0173 18.624 44.0173 17.792C44.0173 16.9493 44.2039 16.208 44.5773 15.568C44.9506 14.928 45.4573 14.4267 46.0973 14.064C46.7373 13.7013 47.4679 13.52 48.2893 13.52C49.1213 13.52 49.8573 13.7013 50.4973 14.064C51.1479 14.4267 51.6546 14.928 52.0173 15.568C52.3906 16.208 52.5773 16.9493 52.5773 17.792C52.5773 18.624 52.3906 19.3653 52.0173 20.016C51.6546 20.656 51.1479 21.1627 50.4973 21.536C49.8466 21.8987 49.1106 22.08 48.2893 22.08ZM48.2893 21.072C48.8973 21.072 49.4359 20.9387 49.9053 20.672C50.3746 20.3947 50.7426 20.0107 51.0093 19.52C51.2866 19.0187 51.4253 18.4427 51.4253 17.792C51.4253 17.1307 51.2866 16.5547 51.0093 16.064C50.7426 15.5733 50.3746 15.1947 49.9053 14.928C49.4359 14.6507 48.9026 14.512 48.3053 14.512C47.7079 14.512 47.1746 14.6507 46.7053 14.928C46.2359 15.1947 45.8626 15.5733 45.5853 16.064C45.3079 16.5547 45.1693 17.1307 45.1693 17.792C45.1693 18.4427 45.3079 19.0187 45.5853 19.52C45.8626 20.0107 46.2359 20.3947 46.7053 20.672C47.1746 20.9387 47.7026 21.072 48.2893 21.072ZM54.8965 22V13.6H56.0325V22H54.8965ZM55.4725 11.744C55.2378 11.744 55.0405 11.664 54.8805 11.504C54.7205 11.344 54.6405 11.152 54.6405 10.928C54.6405 10.704 54.7205 10.5173 54.8805 10.368C55.0405 10.208 55.2378 10.128 55.4725 10.128C55.7072 10.128 55.9045 10.2027 56.0645 10.352C56.2245 10.5013 56.3045 10.688 56.3045 10.912C56.3045 11.1467 56.2245 11.344 56.0645 11.504C55.9152 11.664 55.7178 11.744 55.4725 11.744ZM61.4494 22.08C60.756 22.08 60.1 21.984 59.4814 21.792C58.8627 21.5893 58.3774 21.3387 58.0254 21.04L58.5374 20.144C58.8787 20.4 59.316 20.624 59.8494 20.816C60.3827 20.9973 60.9427 21.088 61.5294 21.088C62.3294 21.088 62.9054 20.9653 63.2574 20.72C63.6094 20.464 63.7854 20.128 63.7854 19.712C63.7854 19.4027 63.684 19.1627 63.4814 18.992C63.2894 18.8107 63.0334 18.6773 62.7134 18.592C62.3934 18.496 62.036 18.416 61.6414 18.352C61.2467 18.288 60.852 18.2133 60.4574 18.128C60.0734 18.0427 59.7214 17.92 59.4014 17.76C59.0814 17.5893 58.82 17.36 58.6174 17.072C58.4254 16.784 58.3294 16.4 58.3294 15.92C58.3294 15.4613 58.4574 15.0507 58.7134 14.688C58.9694 14.3253 59.3427 14.0427 59.8334 13.84C60.3347 13.6267 60.9427 13.52 61.6574 13.52C62.2014 13.52 62.7454 13.5947 63.2894 13.744C63.8334 13.8827 64.2814 14.0693 64.6334 14.304L64.1374 15.216C63.764 14.96 63.364 14.7787 62.9374 14.672C62.5107 14.5547 62.084 14.496 61.6574 14.496C60.9 14.496 60.34 14.6293 59.9774 14.896C59.6254 15.152 59.4494 15.4827 59.4494 15.888C59.4494 16.208 59.5454 16.4587 59.7374 16.64C59.94 16.8213 60.2014 16.9653 60.5214 17.072C60.852 17.168 61.2094 17.248 61.5934 17.312C61.988 17.376 62.3774 17.456 62.7614 17.552C63.156 17.6373 63.5134 17.76 63.8334 17.92C64.164 18.0693 64.4254 18.288 64.6174 18.576C64.82 18.8533 64.9214 19.2213 64.9214 19.68C64.9214 20.1707 64.7827 20.5973 64.5054 20.96C64.2387 21.312 63.844 21.5893 63.3214 21.792C62.8094 21.984 62.1854 22.08 61.4494 22.08ZM70.4299 22.08C69.6192 22.08 68.8885 21.8987 68.2379 21.536C67.5979 21.1627 67.0912 20.656 66.7179 20.016C66.3445 19.3653 66.1579 18.624 66.1579 17.792C66.1579 16.9493 66.3445 16.208 66.7179 15.568C67.0912 14.928 67.5979 14.4267 68.2379 14.064C68.8779 13.7013 69.6085 13.52 70.4299 13.52C71.2619 13.52 71.9979 13.7013 72.6379 14.064C73.2885 14.4267 73.7952 14.928 74.1579 15.568C74.5312 16.208 74.7179 16.9493 74.7179 17.792C74.7179 18.624 74.5312 19.3653 74.1579 20.016C73.7952 20.656 73.2885 21.1627 72.6379 21.536C71.9872 21.8987 71.2512 22.08 70.4299 22.08ZM70.4299 21.072C71.0379 21.072 71.5765 20.9387 72.0459 20.672C72.5152 20.3947 72.8832 20.0107 73.1499 19.52C73.4272 19.0187 73.5659 18.4427 73.5659 17.792C73.5659 17.1307 73.4272 16.5547 73.1499 16.064C72.8832 15.5733 72.5152 15.1947 72.0459 14.928C71.5765 14.6507 71.0432 14.512 70.4459 14.512C69.8485 14.512 69.3152 14.6507 68.8459 14.928C68.3765 15.1947 68.0032 15.5733 67.7259 16.064C67.4485 16.5547 67.3099 17.1307 67.3099 17.792C67.3099 18.4427 67.4485 19.0187 67.7259 19.52C68.0032 20.0107 68.3765 20.3947 68.8459 20.672C69.3152 20.9387 69.8432 21.072 70.4299 21.072ZM81.3251 13.52C82.0078 13.52 82.6051 13.6533 83.1171 13.92C83.6398 14.176 84.0451 14.5707 84.3331 15.104C84.6318 15.6373 84.7811 16.3093 84.7811 17.12V22H83.6451V17.232C83.6451 16.3467 83.4211 15.68 82.9731 15.232C82.5358 14.7733 81.9171 14.544 81.1171 14.544C80.5198 14.544 79.9971 14.6667 79.5491 14.912C79.1118 15.1467 78.7705 15.4933 78.5251 15.952C78.2905 16.4 78.1731 16.944 78.1731 17.584V22H77.0371V13.6H78.1251V15.904L77.9491 15.472C78.2158 14.864 78.6425 14.3893 79.2291 14.048C79.8158 13.696 80.5145 13.52 81.3251 13.52Z" fill="white"/>
<defs>
<clipPath id="clip0_53_406">
<rect width="16" height="16" fill="white" transform="translate(8 8)"/>
</clipPath>
</defs>
</svg>
