<svg width="71" height="32" viewBox="0 0 71 32" fill="none" xmlns="http://www.w3.org/2000/svg">
<rect width="71" height="32" rx="8" fill="#FF9900"/>
<path fill-rule="evenodd" clip-rule="evenodd" d="M19.0081 20.3561C19.2057 19.6332 18.822 18.1472 18.822 18.1472C18.822 18.1472 18.5437 19.3578 18.1088 19.8052C17.7378 20.1869 17.2833 20.4516 16.6314 20.5212C17.1644 20.2623 17.5309 19.7225 17.5309 19.0986C17.5309 18.2228 16.8087 17.5128 15.9177 17.5128C15.0268 17.5128 14.3045 18.2228 14.3045 19.0986C14.3045 19.3378 14.3584 19.5646 14.4549 19.768C13.8977 19.3241 13.81 18.6123 13.81 18.6123C13.81 18.6123 13.1878 21.1958 14.9023 22.411C16.6169 23.6263 19.9756 22.5817 19.9756 22.5817C19.9756 22.5817 15.1691 25.9637 11.6074 22.2828C8.53928 19.112 10.8066 14.9376 10.8066 14.9376C10.8066 14.9376 10.7087 15.3248 10.7087 15.7744C10.7087 16.2239 10.9524 16.5659 10.9524 16.5659C10.9524 16.5659 11.6794 15.0335 12.2453 14.4103C12.7808 13.8204 13.452 13.3421 14.0318 12.9289C14.4782 12.6108 14.8703 12.3314 15.1045 12.0695C16.3944 10.6271 15.6035 8 15.6035 8C15.6035 8 17.0575 9.28188 17.4635 10.9374C17.6182 11.5685 17.5187 12.2865 17.4297 12.9286C17.2852 13.971 17.1684 14.8133 18.2123 14.7586C19.8992 14.6703 18.4333 12.0695 18.4333 12.0695C18.4333 12.0695 22.2599 14.0807 21.9741 17.5983C21.6882 21.1158 17.7914 21.9155 17.7914 21.9155C17.7914 21.9155 18.8103 21.0789 19.0081 20.3561Z" fill="white"/>
<path d="M34.88 16.224H40.8V17.248H34.88V16.224ZM35.008 22H33.824V10.8H41.504V11.824H35.008V22ZM43.709 22V13.6H44.845V22H43.709ZM44.285 11.744C44.0503 11.744 43.853 11.664 43.693 11.504C43.533 11.344 43.453 11.152 43.453 10.928C43.453 10.704 43.533 10.5173 43.693 10.368C43.853 10.208 44.0503 10.128 44.285 10.128C44.5197 10.128 44.717 10.2027 44.877 10.352C45.037 10.5013 45.117 10.688 45.117 10.912C45.117 11.1467 45.037 11.344 44.877 11.504C44.7277 11.664 44.5303 11.744 44.285 11.744ZM48.0059 22V13.6H49.0939V15.888L48.9819 15.488C49.2165 14.848 49.6112 14.3627 50.1659 14.032C50.7205 13.6907 51.4085 13.52 52.2299 13.52V14.624C52.1872 14.624 52.1445 14.624 52.1019 14.624C52.0592 14.6133 52.0165 14.608 51.9739 14.608C51.0885 14.608 50.3952 14.88 49.8939 15.424C49.3925 15.9573 49.1419 16.72 49.1419 17.712V22H48.0059ZM57.7926 22.08C56.918 22.08 56.15 21.8987 55.4886 21.536C54.8273 21.1627 54.31 20.656 53.9366 20.016C53.5633 19.3653 53.3766 18.624 53.3766 17.792C53.3766 16.96 53.5526 16.224 53.9046 15.584C54.2673 14.944 54.758 14.4427 55.3766 14.08C56.006 13.7067 56.71 13.52 57.4886 13.52C58.278 13.52 58.9766 13.7013 59.5846 14.064C60.2033 14.416 60.6886 14.9173 61.0406 15.568C61.3926 16.208 61.5686 16.9493 61.5686 17.792C61.5686 17.8453 61.5633 17.904 61.5526 17.968C61.5526 18.0213 61.5526 18.08 61.5526 18.144H54.2406V17.296H60.9446L60.4966 17.632C60.4966 17.024 60.3633 16.4853 60.0966 16.016C59.8406 15.536 59.4886 15.1627 59.0406 14.896C58.5926 14.6293 58.0753 14.496 57.4886 14.496C56.9126 14.496 56.3953 14.6293 55.9366 14.896C55.478 15.1627 55.1206 15.536 54.8646 16.016C54.6086 16.496 54.4806 17.0453 54.4806 17.664V17.84C54.4806 18.48 54.6193 19.0453 54.8966 19.536C55.1846 20.016 55.5793 20.3947 56.0806 20.672C56.5926 20.9387 57.174 21.072 57.8246 21.072C58.3366 21.072 58.8113 20.9813 59.2486 20.8C59.6966 20.6187 60.0806 20.3413 60.4006 19.968L61.0406 20.704C60.6673 21.152 60.198 21.4933 59.6326 21.728C59.078 21.9627 58.4646 22.08 57.7926 22.08Z" fill="white"/>
</svg>
