<svg width="91" height="32" viewBox="0 0 91 32" fill="none" xmlns="http://www.w3.org/2000/svg">
<rect width="91" height="32" rx="8" fill="#FFDE00"/>
<path fill-rule="evenodd" clip-rule="evenodd" d="M12.7675 8.01824C12.7644 8.00931 12.771 8 12.7805 8H18.4001C18.4062 8 18.4115 8.00392 18.4133 8.00968L20.9945 16.3491C20.9972 16.3579 20.9906 16.3669 20.9813 16.3669H17.2401C17.2355 16.3669 17.2323 16.3713 17.2335 16.3757L19.3792 23.9289C19.3834 23.9436 19.3642 23.9532 19.355 23.941L11.0165 12.8521C11.0097 12.843 11.0162 12.8301 11.0275 12.8301H14.423C14.4277 12.8301 14.431 12.8254 14.4294 12.821L12.7675 8.01824Z" fill="white"/>
<path d="M34.88 15.808H40.8V16.816H34.88V15.808ZM35.008 20.976H41.744V22H33.824V10.8H41.504V11.824H35.008V20.976ZM44.2871 22V10.128H45.4231V22H44.2871ZM52.152 22.08C51.2773 22.08 50.5093 21.8987 49.848 21.536C49.1867 21.1627 48.6693 20.656 48.296 20.016C47.9227 19.3653 47.736 18.624 47.736 17.792C47.736 16.96 47.912 16.224 48.264 15.584C48.6267 14.944 49.1173 14.4427 49.736 14.08C50.3653 13.7067 51.0693 13.52 51.848 13.52C52.6373 13.52 53.336 13.7013 53.944 14.064C54.5627 14.416 55.048 14.9173 55.4 15.568C55.752 16.208 55.928 16.9493 55.928 17.792C55.928 17.8453 55.9227 17.904 55.912 17.968C55.912 18.0213 55.912 18.08 55.912 18.144H48.6V17.296H55.304L54.856 17.632C54.856 17.024 54.7227 16.4853 54.456 16.016C54.2 15.536 53.848 15.1627 53.4 14.896C52.952 14.6293 52.4347 14.496 51.848 14.496C51.272 14.496 50.7547 14.6293 50.296 14.896C49.8373 15.1627 49.48 15.536 49.224 16.016C48.968 16.496 48.84 17.0453 48.84 17.664V17.84C48.84 18.48 48.9787 19.0453 49.256 19.536C49.544 20.016 49.9387 20.3947 50.44 20.672C50.952 20.9387 51.5333 21.072 52.184 21.072C52.696 21.072 53.1707 20.9813 53.608 20.8C54.056 20.6187 54.44 20.3413 54.76 19.968L55.4 20.704C55.0267 21.152 54.5573 21.4933 53.992 21.728C53.4373 21.9627 52.824 22.08 52.152 22.08ZM60.8963 22.08C60.1069 22.08 59.4989 21.8667 59.0723 21.44C58.6456 21.0133 58.4323 20.4107 58.4323 19.632V11.744H59.5683V19.568C59.5683 20.0587 59.6909 20.4373 59.9363 20.704C60.1923 20.9707 60.5549 21.104 61.0243 21.104C61.5256 21.104 61.9416 20.96 62.2723 20.672L62.6723 21.488C62.4483 21.6907 62.1763 21.84 61.8563 21.936C61.5469 22.032 61.2269 22.08 60.8963 22.08ZM56.9283 14.544V13.6H62.1283V14.544H56.9283ZM64.7403 22V13.6H65.8283V15.888L65.7163 15.488C65.9509 14.848 66.3456 14.3627 66.9003 14.032C67.4549 13.6907 68.1429 13.52 68.9643 13.52V14.624C68.9216 14.624 68.8789 14.624 68.8363 14.624C68.7936 14.6133 68.7509 14.608 68.7083 14.608C67.8229 14.608 67.1296 14.88 66.6283 15.424C66.1269 15.9573 65.8763 16.72 65.8763 17.712V22H64.7403ZM71.0371 22V13.6H72.1731V22H71.0371ZM71.6131 11.744C71.3785 11.744 71.1811 11.664 71.0211 11.504C70.8611 11.344 70.7811 11.152 70.7811 10.928C70.7811 10.704 70.8611 10.5173 71.0211 10.368C71.1811 10.208 71.3785 10.128 71.6131 10.128C71.8478 10.128 72.0451 10.2027 72.2051 10.352C72.3651 10.5013 72.4451 10.688 72.4451 10.912C72.4451 11.1467 72.3651 11.344 72.2051 11.504C72.0558 11.664 71.8585 11.744 71.6131 11.744ZM78.822 22.08C77.99 22.08 77.2433 21.8987 76.582 21.536C75.9313 21.1627 75.4193 20.656 75.046 20.016C74.6727 19.3653 74.486 18.624 74.486 17.792C74.486 16.9493 74.6727 16.208 75.046 15.568C75.4193 14.928 75.9313 14.4267 76.582 14.064C77.2433 13.7013 77.99 13.52 78.822 13.52C79.5367 13.52 80.182 13.6587 80.758 13.936C81.334 14.2133 81.7873 14.6293 82.118 15.184L81.27 15.76C80.982 15.3333 80.6247 15.0187 80.198 14.816C79.7713 14.6133 79.3073 14.512 78.806 14.512C78.2087 14.512 77.67 14.6507 77.19 14.928C76.71 15.1947 76.3313 15.5733 76.054 16.064C75.7767 16.5547 75.638 17.1307 75.638 17.792C75.638 18.4533 75.7767 19.0293 76.054 19.52C76.3313 20.0107 76.71 20.3947 77.19 20.672C77.67 20.9387 78.2087 21.072 78.806 21.072C79.3073 21.072 79.7713 20.9707 80.198 20.768C80.6247 20.5653 80.982 20.256 81.27 19.84L82.118 20.416C81.7873 20.96 81.334 21.376 80.758 21.664C80.182 21.9413 79.5367 22.08 78.822 22.08Z" fill="white"/>
</svg>
