<svg width="74" height="32" viewBox="0 0 74 32" fill="none" xmlns="http://www.w3.org/2000/svg">
<rect width="74" height="32" rx="8" fill="#7BCF00"/>
<path fill-rule="evenodd" clip-rule="evenodd" d="M18.6937 8.01566C18.7053 7.99905 18.7282 7.99501 18.7448 8.00665L19.8809 8.80213C19.8975 8.81377 19.9016 8.83667 19.8899 8.85328L18.3087 11.1115C19.0774 11.3571 19.6012 11.622 19.6012 11.622C19.6012 11.622 18.321 13.8239 16.1498 13.8239C13.9786 13.8239 12.4358 11.7717 12.4358 11.7717C12.4358 11.7717 12.9828 11.4225 13.7937 11.1231L12.0594 9.05617C12.0463 9.04063 12.0484 9.01747 12.0639 9.00443L13.1263 8.11296C13.1419 8.09992 13.165 8.10195 13.1781 8.11749L15.3741 10.7346C15.5621 10.7133 15.7537 10.7014 15.947 10.7014C16.2248 10.7014 16.5023 10.7225 16.7732 10.7584L18.6937 8.01566ZM19.1233 13.9282C19.7027 13.5144 20.5794 12.4343 20.5794 12.4343C20.5794 12.4343 22.8189 14.209 22.8189 17.972C22.8189 21.735 18.9472 23.9998 18.9472 23.9998C18.9472 23.9998 17.0973 22.1316 16.6432 19.7634C16.1891 17.3953 17.3149 14.7657 17.3149 14.7657C17.3149 14.7657 18.5438 14.342 19.1233 13.9282ZM12.8832 13.9282C12.3038 13.5144 11.427 12.4343 11.427 12.4343C11.427 12.4343 9.1875 14.209 9.1875 17.972C9.1875 21.735 13.0592 23.9998 13.0592 23.9998C13.0592 23.9998 14.9091 22.1316 15.3632 19.7634C15.8173 17.3953 14.6915 14.7657 14.6915 14.7657C14.6915 14.7657 13.4626 14.342 12.8832 13.9282Z" fill="white"/>
<path d="M33.824 22V10.8H38.656C39.904 10.8 40.8693 11.0507 41.552 11.552C42.2453 12.0533 42.592 12.7627 42.592 13.68C42.592 14.288 42.448 14.8 42.16 15.216C41.8827 15.632 41.4987 15.9467 41.008 16.16C40.528 16.3733 40 16.48 39.424 16.48L39.696 16.096C40.4107 16.096 41.024 16.208 41.536 16.432C42.0587 16.6453 42.464 16.9707 42.752 17.408C43.04 17.8347 43.184 18.368 43.184 19.008C43.184 19.9573 42.832 20.6933 42.128 21.216C41.4347 21.7387 40.384 22 38.976 22H33.824ZM35.008 21.024H38.96C39.9413 21.024 40.6933 20.8587 41.216 20.528C41.7387 20.1867 42 19.648 42 18.912C42 18.1867 41.7387 17.6587 41.216 17.328C40.6933 16.9867 39.9413 16.816 38.96 16.816H34.88V15.84H38.576C39.472 15.84 40.1653 15.6693 40.656 15.328C41.1573 14.9867 41.408 14.48 41.408 13.808C41.408 13.1253 41.1573 12.6187 40.656 12.288C40.1653 11.9467 39.472 11.776 38.576 11.776H35.008V21.024ZM49.1185 22.08C48.4038 22.08 47.7798 21.9467 47.2465 21.68C46.7132 21.4133 46.2972 21.0133 45.9985 20.48C45.7105 19.9467 45.5665 19.28 45.5665 18.48V13.6H46.7025V18.352C46.7025 19.248 46.9212 19.9253 47.3585 20.384C47.8065 20.832 48.4305 21.056 49.2305 21.056C49.8172 21.056 50.3238 20.9387 50.7505 20.704C51.1878 20.4587 51.5185 20.1067 51.7425 19.648C51.9772 19.1893 52.0945 18.64 52.0945 18V13.6H53.2305V22H52.1425V19.696L52.3185 20.112C52.0518 20.7307 51.6358 21.216 51.0705 21.568C50.5158 21.9093 49.8652 22.08 49.1185 22.08ZM59.9805 25.184C59.2125 25.184 58.4765 25.072 57.7725 24.848C57.0685 24.624 56.4978 24.304 56.0605 23.888L56.6365 23.024C57.0312 23.376 57.5165 23.6533 58.0925 23.856C58.6792 24.0693 59.2978 24.176 59.9485 24.176C61.0152 24.176 61.7992 23.9253 62.3005 23.424C62.8018 22.9333 63.0525 22.1653 63.0525 21.12V19.024L63.2125 17.584L63.1005 16.144V13.6H64.1885V20.976C64.1885 22.4267 63.8312 23.488 63.1165 24.16C62.4125 24.8427 61.3672 25.184 59.9805 25.184ZM59.7725 21.68C58.9725 21.68 58.2525 21.5093 57.6125 21.168C56.9725 20.816 56.4658 20.3307 56.0925 19.712C55.7298 19.0933 55.5485 18.384 55.5485 17.584C55.5485 16.784 55.7298 16.08 56.0925 15.472C56.4658 14.8533 56.9725 14.3733 57.6125 14.032C58.2525 13.6907 58.9725 13.52 59.7725 13.52C60.5192 13.52 61.1912 13.6747 61.7885 13.984C62.3858 14.2933 62.8605 14.752 63.2125 15.36C63.5645 15.968 63.7405 16.7093 63.7405 17.584C63.7405 18.4587 63.5645 19.2 63.2125 19.808C62.8605 20.416 62.3858 20.88 61.7885 21.2C61.1912 21.52 60.5192 21.68 59.7725 21.68ZM59.8845 20.672C60.5032 20.672 61.0525 20.544 61.5325 20.288C62.0125 20.0213 62.3912 19.6587 62.6685 19.2C62.9458 18.7307 63.0845 18.192 63.0845 17.584C63.0845 16.976 62.9458 16.4427 62.6685 15.984C62.3912 15.5253 62.0125 15.168 61.5325 14.912C61.0525 14.6453 60.5032 14.512 59.8845 14.512C59.2765 14.512 58.7272 14.6453 58.2365 14.912C57.7565 15.168 57.3778 15.5253 57.1005 15.984C56.8338 16.4427 56.7005 16.976 56.7005 17.584C56.7005 18.192 56.8338 18.7307 57.1005 19.2C57.3778 19.6587 57.7565 20.0213 58.2365 20.288C58.7272 20.544 59.2765 20.672 59.8845 20.672Z" fill="white"/>
</svg>
