<svg width="90" height="32" viewBox="0 0 90 32" fill="none" xmlns="http://www.w3.org/2000/svg">
<rect width="90" height="32" rx="8" fill="#89BDFF"/>
<path fill-rule="evenodd" clip-rule="evenodd" d="M13.5848 22.9292C15.9286 22.9292 17.9352 21.6265 18.7636 19.7799C18.7738 19.7573 15.4377 20.6468 15.5441 20.3324C15.5916 20.192 17.6366 19.4449 19.1265 18.5736C19.9828 18.0727 20.3772 17.0125 20.3772 17.0125C20.3772 17.0125 18.9345 17.713 18.2051 17.8907C16.7354 18.2488 15.4416 18.2102 15.4416 18.1729C15.4416 18.0922 17.5899 17.684 20.5758 15.8645C21.9802 15.0087 22.3617 13.5345 22.3617 13.5345C22.3617 13.5345 20.8176 14.4542 19.8842 14.7579C17.6705 15.478 15.6505 15.695 15.6505 15.5975C15.6505 15.3889 17.4282 14.9001 19.313 13.9868C20.293 13.5119 21.1417 12.8916 22.1252 12.2017C23.7346 11.0729 24 9.0625 24 9.0625C24 9.0625 22.4127 10.0863 21.6381 10.4262C18.4419 11.8291 15.6197 12.565 13.5848 12.7243C10.513 12.9648 8 15.108 8 17.8907C8 20.6733 10.5004 22.9292 13.5848 22.9292Z" fill="white"/>
<path d="M34.88 16.224H40.8V17.248H34.88V16.224ZM35.008 22H33.824V10.8H41.504V11.824H35.008V22ZM43.709 22V10.128H44.845V22H43.709ZM48.0699 25.184C47.6752 25.184 47.2965 25.12 46.9339 24.992C46.5819 24.864 46.2779 24.672 46.0219 24.416L46.5499 23.568C46.7632 23.7707 46.9925 23.9253 47.2379 24.032C47.4939 24.1493 47.7765 24.208 48.0859 24.208C48.4592 24.208 48.7792 24.1013 49.0459 23.888C49.3232 23.6853 49.5845 23.3227 49.8299 22.8L50.3739 21.568L50.5019 21.392L53.9579 13.6H55.0779L50.8699 23.008C50.6352 23.552 50.3739 23.984 50.0859 24.304C49.8085 24.624 49.5045 24.848 49.1739 24.976C48.8432 25.1147 48.4752 25.184 48.0699 25.184ZM50.3099 22.24L46.4379 13.6H47.6219L51.0459 21.312L50.3099 22.24ZM56.6778 22V13.6H57.8138V22H56.6778ZM57.2538 11.744C57.0191 11.744 56.8218 11.664 56.6618 11.504C56.5018 11.344 56.4218 11.152 56.4218 10.928C56.4218 10.704 56.5018 10.5173 56.6618 10.368C56.8218 10.208 57.0191 10.128 57.2538 10.128C57.4884 10.128 57.6858 10.2027 57.8458 10.352C58.0058 10.5013 58.0858 10.688 58.0858 10.912C58.0858 11.1467 58.0058 11.344 57.8458 11.504C57.6964 11.664 57.4991 11.744 57.2538 11.744ZM65.2626 13.52C65.9453 13.52 66.5426 13.6533 67.0546 13.92C67.5773 14.176 67.9826 14.5707 68.2706 15.104C68.5693 15.6373 68.7186 16.3093 68.7186 17.12V22H67.5826V17.232C67.5826 16.3467 67.3586 15.68 66.9106 15.232C66.4733 14.7733 65.8546 14.544 65.0546 14.544C64.4573 14.544 63.9346 14.6667 63.4866 14.912C63.0493 15.1467 62.708 15.4933 62.4626 15.952C62.228 16.4 62.1106 16.944 62.1106 17.584V22H60.9746V13.6H62.0626V15.904L61.8866 15.472C62.1533 14.864 62.58 14.3893 63.1666 14.048C63.7533 13.696 64.452 13.52 65.2626 13.52ZM75.3711 25.184C74.6031 25.184 73.8671 25.072 73.1631 24.848C72.4591 24.624 71.8885 24.304 71.4511 23.888L72.0271 23.024C72.4218 23.376 72.9071 23.6533 73.4831 23.856C74.0698 24.0693 74.6885 24.176 75.3391 24.176C76.4058 24.176 77.1898 23.9253 77.6911 23.424C78.1925 22.9333 78.4431 22.1653 78.4431 21.12V19.024L78.6031 17.584L78.4911 16.144V13.6H79.5791V20.976C79.5791 22.4267 79.2218 23.488 78.5071 24.16C77.8031 24.8427 76.7578 25.184 75.3711 25.184ZM75.1631 21.68C74.3631 21.68 73.6431 21.5093 73.0031 21.168C72.3631 20.816 71.8565 20.3307 71.4831 19.712C71.1205 19.0933 70.9391 18.384 70.9391 17.584C70.9391 16.784 71.1205 16.08 71.4831 15.472C71.8565 14.8533 72.3631 14.3733 73.0031 14.032C73.6431 13.6907 74.3631 13.52 75.1631 13.52C75.9098 13.52 76.5818 13.6747 77.1791 13.984C77.7765 14.2933 78.2511 14.752 78.6031 15.36C78.9551 15.968 79.1311 16.7093 79.1311 17.584C79.1311 18.4587 78.9551 19.2 78.6031 19.808C78.2511 20.416 77.7765 20.88 77.1791 21.2C76.5818 21.52 75.9098 21.68 75.1631 21.68ZM75.2751 20.672C75.8938 20.672 76.4431 20.544 76.9231 20.288C77.4031 20.0213 77.7818 19.6587 78.0591 19.2C78.3365 18.7307 78.4751 18.192 78.4751 17.584C78.4751 16.976 78.3365 16.4427 78.0591 15.984C77.7818 15.5253 77.4031 15.168 76.9231 14.912C76.4431 14.6453 75.8938 14.512 75.2751 14.512C74.6671 14.512 74.1178 14.6453 73.6271 14.912C73.1471 15.168 72.7685 15.5253 72.4911 15.984C72.2245 16.4427 72.0911 16.976 72.0911 17.584C72.0911 18.192 72.2245 18.7307 72.4911 19.2C72.7685 19.6587 73.1471 20.0213 73.6271 20.288C74.1178 20.544 74.6671 20.672 75.2751 20.672Z" fill="white"/>
</svg>
